HIERARCHY
ROOT mixamorig:Hips
{
  OFFSET 0.000000 0.000000 0.000000
  CHANNELS 6 Xposition Yposition Zposition Xrotation Yrotation Zrotation
  JOINT mixamorig:Spine
  {
    OFFSET 0.384862 23.362435 -6.545746
    CHANNELS 3 Xrotation Yrotation Zrotation
    JOINT mixamorig:Spine2
    {
      OFFSET 0.384862 23.362435 -6.545746
      CHANNELS 3 Xrotation Yrotation Zrotation
      JOINT mixamorig:Neck
      {
        OFFSET 0.000000 3.494450 0.000000
        CHANNELS 3 Xrotation Yrotation Zrotation
        JOINT mixamorig:Head
        {
          OFFSET 0.000000 3.104519 0.000000
          CHANNELS 3 Xrotation Yrotation Zrotation
          End Site
          {
            OFFSET 0.000000 0.931356 0.000000
          }
        }
      }
      JOINT mixamorig:LeftShoulder
      {
        OFFSET 16.753096 1.874518 -2.350806
        CHANNELS 3 Xrotation Yrotation Zrotation
        JOINT mixamorig:LeftArm
        {
          OFFSET 9.215470 -17.927143 -6.750691
          CHANNELS 3 Xrotation Yrotation Zrotation
          JOINT mixamorig:LeftForeArm
          {
            OFFSET -8.631796 -1.807562 -13.626102
            CHANNELS 3 Xrotation Yrotation Zrotation
            JOINT mixamorig:LeftHand
            {
              OFFSET -3.581741 1.574515 -2.219805
              CHANNELS 3 Xrotation Yrotation Zrotation
              End Site
              {
                OFFSET -1.074522 0.472355 -0.665942
              }
            }
          }
        }
      }
      JOINT mixamorig:RightShoulder
      {
        OFFSET -16.753096 1.874518 2.350806
        CHANNELS 3 Xrotation Yrotation Zrotation
        JOINT mixamorig:RightArm
        {
          OFFSET -4.024878 -26.092607 -12.467419
          CHANNELS 3 Xrotation Yrotation Zrotation
          JOINT mixamorig:RightForeArm
          {
            OFFSET 6.746233 1.826222 -21.720462
            CHANNELS 3 Xrotation Yrotation Zrotation
            JOINT mixamorig:RightHand
            {
              OFFSET 4.773503 3.298478 -5.155945
              CHANNELS 3 Xrotation Yrotation Zrotation
              End Site
              {
                OFFSET 1.432051 0.989543 -1.546783
              }
            }
          }
        }
      }
    }
  }
  JOINT mixamorig:LeftUpLeg
  {
    OFFSET 9.108096 0.180174 1.189578
    CHANNELS 3 Xrotation Yrotation Zrotation
    JOINT mixamorig:LeftLeg
    {
      OFFSET 8.006705 -41.225060 -10.059709
      CHANNELS 3 Xrotation Yrotation Zrotation
      JOINT mixamorig:LeftFoot
      {
        OFFSET 3.400898 -37.290034 11.365810
        CHANNELS 3 Xrotation Yrotation Zrotation
        JOINT mixamorig:LeftToeBase
        {
          OFFSET 2.883568 -4.422998 -6.372284
          CHANNELS 3 Xrotation Yrotation Zrotation
          End Site
          {
            OFFSET 0.865071 -1.326900 -1.911685
          }
        }
      }
    }
  }
  JOINT mixamorig:RightUpLeg
  {
    OFFSET -9.108096 -0.180174 -1.189578
    CHANNELS 3 Xrotation Yrotation Zrotation
    JOINT mixamorig:RightLeg
    {
      OFFSET -2.107032 -32.214779 1.747249
      CHANNELS 3 Xrotation Yrotation Zrotation
      JOINT mixamorig:RightFoot
      {
        OFFSET -3.136493 -41.782707 15.884636
        CHANNELS 3 Xrotation Yrotation Zrotation
        JOINT mixamorig:RightToeBase
        {
          OFFSET -9.692626 -1.266161 -8.277397
          CHANNELS 3 Xrotation Yrotation Zrotation
          End Site
          {
            OFFSET -2.907788 -0.379848 -2.483219
          }
        }
      }
    }
  }
}
MOTION
Frames: 6
Frame Time: 0.083333
0.052705 0.141873 0.159262 1.849272 -0.033105 -0.011819 0.000000 0.000000 0.000000 -15.548207 6.519214 1.640338 29.303110 -1.056348 -7.193008 29.204586 2.312372 -8.640541 15.259078 -6.104649 0.824909 0.598770 -2.712516 -1.895354 -2.695414 0.274763 0.850541 0.000000 0.000000 0.000000 14.385672 -6.717432 -0.117838 0.834109 1.017178 0.804197 -1.170230 -0.058377 0.341310 0.000000 0.000000 0.000000 -2.771172 -0.149238 0.026735 -0.665681 0.502470 1.387734 -0.850320 6.344559 -7.483982 0.000000 0.000000 0.000000 -2.557683 0.066821 -0.157188 0.693701 -0.548697 -1.194174 -0.751910 -2.263321 2.800601 0.000000 0.000000 0.000000
0.054058 0.143352 0.163725 2.004902 -0.038183 -0.026444 0.000000 0.000000 0.000000 -15.545857 6.672130 1.688033 25.747500 -1.163756 -7.384771 25.693966 1.644733 -8.912352 14.863227 -6.454960 0.976044 0.817756 -2.275575 -2.110411 -2.592645 0.308294 0.931305 0.000000 0.000000 0.000000 14.204507 -6.807994 -0.247869 0.648132 0.961173 0.874461 -1.081490 -0.157874 0.240174 0.000000 0.000000 0.000000 -2.871499 -0.137613 0.045426 -0.448889 0.539570 1.459020 -0.955535 5.356246 -6.839475 0.000000 0.000000 0.000000 -2.732129 0.065495 -0.178695 0.543991 -0.546873 -1.167316 -0.578699 -1.981059 2.772869 0.000000 0.000000 0.000000
0.059814 0.145958 0.169474 6.124094 -0.132301 -0.169072 0.000000 0.000000 0.000000 -15.573366 5.010100 1.041914 11.514725 0.599898 -8.442965 11.383371 1.710706 -9.125795 12.872424 -4.363443 3.124941 2.829734 -5.574076 -6.506062 -6.946288 1.290474 2.643483 0.000000 0.000000 0.000000 11.602125 -4.642942 -1.195928 1.201685 2.405494 2.767784 -2.787371 -0.698062 0.372164 0.000000 0.000000 0.000000 -8.417943 -0.392246 0.389783 -0.747398 1.790508 4.553228 -3.050593 11.820824 -17.622963 0.000000 0.000000 0.000000 -7.907659 0.158857 -0.682038 0.590944 -1.555140 -3.083044 -1.310462 -4.843752 8.234630 0.000000 0.000000 0.000000
0.073054 0.147377 0.174431 10.091786 -0.264135 -0.567767 0.000000 0.000000 0.000000 -15.595382 3.680941 1.008868 -0.590586 2.698718 -8.985258 -1.000808 2.177583 -8.737019 9.146426 -3.621962 4.931549 5.774198 -7.076605 -10.506893 -9.161709 3.342899 3.106343 0.000000 0.000000 0.000000 8.957043 -2.384817 -3.200030 0.310358 2.527931 5.058315 -3.453083 -1.504013 -0.051185 0.000000 0.000000 0.000000 -12.800531 -0.686845 1.890147 -0.330408 3.384286 7.166936 -4.914679 9.027484 -21.348866 0.000000 0.000000 0.000000 -9.837799 0.144809 -1.902394 -4.068654 -2.573438 -3.424758 -1.017924 -5.243447 13.320034 0.000000 0.000000 0.000000
0.089147 0.146510 0.180351 12.648159 -0.384225 -1.137162 -0.000000 0.000000 0.000000 -15.636591 1.020076 1.326064 23.956452 6.999824 -7.055404 22.307815 10.297078 -4.709708 6.218407 -0.908578 4.076757 9.820706 -10.767225 -12.090733 -10.327674 5.961819 0.587593 0.000000 0.000000 0.000000 7.791752 1.017846 -5.107556 0.238220 1.568591 7.251486 -3.810210 -1.512142 0.250237 0.000000 0.000000 0.000000 -13.433920 -1.038688 5.227330 -2.877797 4.603391 6.287573 -4.833511 5.402671 -21.099121 0.000000 0.000000 0.000000 -3.497601 0.107975 -4.724011 -16.087755 -4.384781 -1.225504 0.256134 -3.411349 16.121956 0.000000 0.000000 0.000000
0.099872 0.140162 0.188050 15.692538 -0.475628 -1.625421 -0.000000 0.000000 0.000000 -15.667129 -1.031153 1.688777 22.662051 11.195424 -6.960464 19.779031 14.451804 -2.816311 1.698660 1.227668 1.775475 18.903962 -13.030843 -14.488129 -14.180433 5.982394 -1.048821 0.000000 0.000000 0.000000 5.593088 3.028857 -5.412888 2.732143 0.617386 8.343576 -4.505549 -1.005868 1.390585 0.000000 0.000000 0.000000 -9.768375 -0.581121 8.410127 -10.165693 4.369761 1.312941 -3.153249 6.172023 -18.275349 0.000000 0.000000 0.000000 1.446826 0.204344 -8.985049 -26.614115 -7.142175 2.170490 5.036039 3.449517 12.748303 0.000000 0.000000 0.000000
